# xmcd
#
# Track frame offsets:
#	150
#	14899
#	29358
#	42311
#	59523
#	76422
#	90823
#	108055
#	123032
#	138543
#	154511
#	170069
#	184881
#
# Disc length: 2687 seconds
#
# Revision: 1
# Processed by: cddbd v1.5.2PL0 Copyright (c) Steve Scherf et al.
# Submitted via: audiograbber 1.83.01
#
DISCID=a30a7d0d
DTITLE=Thomas Rhett - Tangled Up
DYEAR=2015
DGENRE=Country
TTITLE0=Anthem
TTITLE1=Crash And Burn
TTITLE2=South Side
TTITLE3=Die A Happy Man
TTITLE4=Vacation
TTITLE5=Like It's The Last Time
TTITLE6=T-Shirt
TTITLE7=Single Girl
TTITLE8=The Day You Stop Lookin' Back
TTITLE9=Tangled
TTITLE10=Playing With Fire
TTITLE11=I Feel Good
TTITLE12=Learned It From The Radio
EXTD=
EXTT0=
EXTT1=
EXTT2=
EXTT3=
EXTT4=
EXTT5=
EXTT6=
EXTT7=
EXTT8=
EXTT9=
EXTT10=
EXTT11=
EXTT12=
PLAYORDER=
